<svg width="20" height="19" viewBox="0 0 20 19" fill="none" xmlns="http://www.w3.org/2000/svg">
<path d="M5 19V5.79379L12.7637 11.9887V2L14 3.00847V14.5819L6.28571 8.43503V19H5Z" fill="#D3AF5F"/>
<path d="M15 4V15.0308L16 16V5.01538L15 4Z" fill="#D3AF5F"/>
<path d="M17 7V11L19 10.0769V7.92308L17 7Z" fill="#D3AF5F"/>
<path d="M2 11V7L1 7.92308V10.0769L2 11Z" fill="#D3AF5F"/>
<path d="M8 11V15.087L9 16V11.9565L8 11Z" fill="#D3AF5F"/>
<path d="M3 4L4 4.94382V16L3 15.1011V4Z" fill="#D3AF5F"/>
<path d="M20 3H19V6H20V3Z" fill="white"/>
<path d="M0 0H20V19H8.39002V17.8713H18.8209V1.12871H1.17914V17.8713H4.85261V19H0V0Z" fill="#D3AF5F"/>
<path d="M11.1268 9.99204C11.5854 9.95993 11.8646 8.61107 11.7503 6.97926C11.6361 5.34745 11.1717 4.05064 10.7131 4.08274C10.2545 4.11484 9.97529 5.46371 10.0895 7.09552C10.2037 8.72732 10.6681 10.0241 11.1268 9.99204Z" fill="#D3AF5F"/>
</svg>
